<?xml version="1.0" encoding="UTF-8" standalone="no"?>
<!-- Created with Inkscape (http://www.inkscape.org/) -->

<svg
   width="24.35936mm"
   height="24.349571mm"
   viewBox="0 0 24.35936 24.349571"
   version="1.1"
   id="svg2330"
   xmlns:inkscape="http://www.inkscape.org/namespaces/inkscape"
   xmlns:sodipodi="http://sodipodi.sourceforge.net/DTD/sodipodi-0.dtd"
   xmlns="http://www.w3.org/2000/svg"
   xmlns:svg="http://www.w3.org/2000/svg">
  <sodipodi:namedview
     id="namedview2332"
     pagecolor="#505050"
     bordercolor="#eeeeee"
     borderopacity="1"
     inkscape:showpageshadow="0"
     inkscape:pageopacity="0"
     inkscape:pagecheckerboard="0"
     inkscape:deskcolor="#505050"
     inkscape:document-units="mm"
     showgrid="false" />
  <defs
     id="defs2327" />
  <g
     inkscape:label="Layer 1"
     inkscape:groupmode="layer"
     id="layer1"
     transform="translate(-77.90027,-64.713537)">
    <path
       style="fill:#000000;stroke-width:0.264583"
       d="m 79.181273,82.559541 c -0.51202,-1.07224 -1.02957,-2.54878 -1.1501,-3.2812 -0.27534,-1.67308 -0.0906,-5.70234 0.31447,-6.86005 0.93244,-2.6648 4.79249,-5.83735 8.61005,-7.07657 2.69924,-0.87619 5.17447,-0.83634 7.63693,0.12298 1.56144,0.6083 2.09505,0.96849 3.53723,2.38769 1.51615,1.49196 1.7965,1.90173 2.612437,3.81814 2.13878,5.02337 2.02092,8.70659 -0.38161,11.92556 -3.914587,5.24487 -10.819617,6.95853 -16.429157,4.07731 -2.16691,-1.11299 -3.55152,-2.60358 -4.75026,-5.11384 z m 4.84512,3.76336 c 0.57309,0.36505 1.20835,0.59523 1.41168,0.51153 0.5033,-0.2072 0.54583,-1.5479 0.0963,-3.03399 -0.64413,-2.12923 -1.38816,-2.45945 -2.97284,-1.31946 -1.31158,0.94354 -1.37157,1.27861 -0.4108,2.29565 0.45853,0.48539 1.30259,1.18121 1.87569,1.54627 z m -2.31776,-4.61494 c 0.50077,-0.26457 1.22961,-0.7816 1.61965,-1.14894 0.7792,-0.73334 0.79564,-1.66078 0.0588,-3.26682 -0.21326,-0.46483 -0.55299,-1.78178 -0.75496,-2.92655 -0.63589,-3.60435 -0.79032,-3.91244 -1.70428,-3.39995 -0.9055,0.50774 -1.74195,3.14098 -1.83236,5.7685 -0.0853,2.47915 0.24222,3.88664 1.12507,4.83461 0.51533,0.5528 0.67614,0.56812 1.48805,0.13915 z m 6.62528,6.14249 c 0.77316,0.25832 4.27823,-0.0444 4.65446,-0.40203 0.17492,-0.16626 0.57831,-1.39314 0.89641,-2.7264 l 0.57837,-2.42414 -1.63853,-1.53115 c -1.2063,-1.12727 -1.86285,-1.57026 -2.48893,-1.67934 -0.84738,-0.14766 -3.0143,0.61754 -3.7745,1.33288 -0.45138,0.42503 -0.51757,1.67507 -0.14159,2.68011 0.13832,0.36978 0.44367,1.47352 0.67854,2.45275 0.48418,2.01861 0.50229,2.05226 1.23577,2.29732 z m -2.37178,-8.76776 c 0.23407,-0.0171 0.90014,-0.27117 1.48015,-0.56462 1.52807,-0.77309 1.46236,-1.07187 -0.58059,-2.64014 -1.72729,-1.32597 -2.52433,-1.72972 -2.8351,-1.43614 -0.25423,0.24016 0.19704,2.38967 0.71032,3.38344 0.58853,1.13949 0.73816,1.29305 1.22519,1.25749 z m 10.0622,7.14797 c 1.71686,-1.19511 1.85625,-1.54648 1.01943,-2.56984 -0.97719,-1.19502 -1.49299,-1.19437 -1.65829,0.002 -0.0703,0.5089 -0.27241,1.33572 -0.44911,1.83738 -0.44361,1.2594 -0.0508,1.5231 1.08797,0.7304 z m -8.28414,-11.268 c 0.99711,0.65195 2.05063,1.13623 2.49965,1.149 0.86648,0.0247 2.71402,-1.00385 4.02085,-2.23837 0.73067,-0.69024 0.82478,-0.91602 0.62521,-1.4998 -0.28312,-0.82811 -2.38151,-2.35158 -3.16923,-2.30092 -0.27281,0.0175 -0.57397,-0.0506 -0.66926,-0.15149 -0.0953,-0.10087 -1.00814,-0.32404 -2.02855,-0.49595 -1.02042,-0.1719 -2.15633,-0.44208 -2.52427,-0.6004 -1.06452,-0.45806 -2.85119,-0.57245 -3.23776,-0.20728 -0.3706,0.35009 -0.28896,1.75441 0.15046,2.58767 0.39531,0.74965 2.42622,2.51082 4.3329,3.75754 z m 5.51005,4.5789 c 1.4013,0.96401 1.64676,0.77439 2.26452,-1.74939 0.55745,-2.27747 0.20239,-2.95542 -1.08916,-2.07959 -0.4576,0.31026 -1.29846,0.76965 -1.86864,1.02079 -0.57017,0.25116 -1.14198,0.55611 -1.27068,0.67768 -0.29031,0.27425 0.47941,1.10923 1.96394,2.13053 z m 5.33801,3.26386 c 0.45973,0.0674 0.76754,-0.3423 1.486977,-1.97921 0.55824,-1.27011 0.67293,-1.90092 0.69466,-3.82065 0.0147,-1.29685 -0.38396,-3.36363 -0.71672,-3.71588 -0.0649,-0.0687 -0.723977,0.50845 -1.464667,1.28251 -1.12865,1.17942 -1.39578,1.62982 -1.64958,2.78099 -0.77524,3.51644 -0.75249,3.84771 0.32184,4.68566 0.49667,0.38742 1.09405,0.73236 1.3275,0.76659 z m -11.37596,-15.26768 c 1.23128,0.4329 4.5146,1.08573 4.67907,0.93036 0.21534,-0.20342 -0.15501,-0.90006 -0.89482,-1.6832 -0.8369,-0.88592 -2.04569,-1.11251 -3.56251,-0.66778 -1.79938,0.52759 -1.84946,0.84836 -0.22174,1.42062 z m 9.93298,6.44957 c 0.59906,0.0171 1.61816,-0.973 1.75282,-1.70287 0.0928,-0.5032 0.012,-0.61954 -0.57246,-0.82413 -0.82901,-0.29016 -2.22977,-0.4126 -2.44071,-0.21333 -0.16884,0.1595 0.33613,2.17992 0.62923,2.51756 0.10056,0.11519 0.38425,0.21573 0.6311,0.22275 z m -0.85989,-4.08593 c 1.70616,0.42612 2.13268,0.38338 2.01203,-0.20164 -0.0933,-0.45247 -2.24301,-1.94723 -3.93333,-2.73499 -1.72711,-0.8049 -2.32794,-0.5581 -1.55941,0.64057 0.83026,1.29495 1.65769,1.84071 3.48071,2.29606 z"
       id="path231"
       inkscape:export-filename="stonetest.png"
       inkscape:export-xdpi="96"
       inkscape:export-ydpi="96" />
  </g>
</svg>
